<?xml version="1.0" ?><svg height="20" version="1.1" viewBox="0 0 20 20" width="20" xmlns="http://www.w3.org/2000/svg"><g id="layer1"><path d="M 18.646484 0.64648438 L 0.64648438 18.646484 L 1.3535156 19.353516 L 19.353516 1.3535156 L 18.646484 0.64648438 z M 10 2 L 9.25 2.0214844 L 8.5058594 2.0800781 L 7.7636719 2.1796875 L 7.0273438 2.3183594 L 6.3027344 2.4980469 L 5.5859375 2.7148438 L 4.8828125 2.96875 L 4.1933594 3.2597656 L 3.5214844 3.5898438 L 2.8671875 3.953125 L 2.234375 4.3515625 L 1.6210938 4.78125 L 1.0351562 5.2460938 L 0.47265625 5.7421875 L 0.38867188 5.84375 L 0.33398438 5.9648438 L 0.3125 6.0976562 L 0.33007812 6.2304688 L 0.37890625 6.3554688 L 0.4609375 6.4609375 L 0.56054688 6.5390625 L 0.6796875 6.5878906 L 0.8046875 6.6074219 L 0.9296875 6.59375 L 1.0507812 6.546875 L 1.1542969 6.4726562 L 1.6953125 5.9980469 L 2.2617188 5.5546875 L 2.8515625 5.140625 L 3.4667969 4.7617188 L 4.0976562 4.4160156 L 4.75 4.1074219 L 5.4160156 3.8359375 L 6.0957031 3.5996094 L 6.7890625 3.4023438 L 7.4921875 3.2441406 L 8.2050781 3.125 L 8.9199219 3.0449219 L 9.6386719 3.0058594 L 10.359375 3.0058594 L 11.078125 3.0449219 L 11.794922 3.125 L 12.505859 3.2441406 L 13.208984 3.4023438 L 13.902344 3.5996094 L 14.181641 3.6972656 L 14.964844 2.9140625 L 14.414062 2.7148438 L 13.695312 2.4980469 L 12.970703 2.3183594 L 12.234375 2.1796875 L 11.494141 2.0800781 L 10.748047 2.0214844 L 10 2 z M 17.767578 4.3535156 L 17.042969 5.078125 L 17.146484 5.140625 L 17.738281 5.5546875 L 18.302734 5.9980469 L 18.84375 6.4726562 L 18.947266 6.546875 L 19.068359 6.59375 L 19.193359 6.6074219 L 19.320312 6.5878906 L 19.4375 6.5390625 L 19.539062 6.4609375 L 19.619141 6.3554688 L 19.669922 6.2304688 L 19.685547 6.0976562 L 19.666016 5.9648438 L 19.611328 5.84375 L 19.525391 5.7421875 L 18.964844 5.2460938 L 18.376953 4.78125 L 17.767578 4.3535156 z M 10 6 L 9.3886719 6.0175781 L 8.78125 6.0742188 L 8.1777344 6.1679688 L 7.5820312 6.296875 L 6.9941406 6.4628906 L 6.4160156 6.6640625 L 5.8535156 6.8984375 L 5.3066406 7.1699219 L 4.7773438 7.4726562 L 4.265625 7.8066406 L 3.7773438 8.171875 L 3.3105469 8.5664062 L 3.2246094 8.6699219 L 3.1679688 8.7929688 L 3.1464844 8.9257812 L 3.1601562 9.0605469 L 3.2089844 9.1835938 L 3.2910156 9.2910156 L 3.390625 9.3691406 L 3.5078125 9.4179688 L 3.6308594 9.4375 L 3.7578125 9.4257812 L 3.875 9.3828125 L 3.9785156 9.3085938 L 4.4375 8.9238281 L 4.9199219 8.5703125 L 5.4257812 8.2480469 L 5.953125 7.9609375 L 6.4960938 7.7089844 L 7.0566406 7.4941406 L 7.6289062 7.3183594 L 8.2128906 7.1796875 L 8.8027344 7.0800781 L 9.4003906 7.0195312 L 10 7 L 10.597656 7.0195312 L 10.835938 7.0429688 L 11.726562 6.1523438 L 11.216797 6.0742188 L 10.609375 6.0175781 L 10 6 z M 14.857422 7.2636719 L 14.119141 8.0019531 L 14.572266 8.2480469 L 15.078125 8.5703125 L 15.560547 8.9238281 L 16.019531 9.3085938 L 16.123047 9.3828125 L 16.240234 9.4257812 L 16.367188 9.4375 L 16.492188 9.4179688 L 16.607422 9.3691406 L 16.707031 9.2910156 L 16.789062 9.1835938 L 16.839844 9.0605469 L 16.853516 8.9257812 L 16.832031 8.7929688 L 16.775391 8.6699219 L 16.689453 8.5664062 L 16.222656 8.171875 L 15.732422 7.8066406 L 15.220703 7.4726562 L 14.857422 7.2636719 z M 11.830078 10.291016 L 11.013672 11.107422 L 11.285156 11.167969 L 11.701172 11.298828 L 12.101562 11.462891 L 12.488281 11.662109 L 12.853516 11.894531 L 13.199219 12.158203 L 13.302734 12.222656 L 13.419922 12.263672 L 13.541016 12.273438 L 13.664062 12.251953 L 13.775391 12.201172 L 13.873047 12.126953 L 13.955078 12.015625 L 14.005859 11.888672 L 14.017578 11.75 L 13.992188 11.615234 L 13.931641 11.492188 L 13.837891 11.390625 L 13.451172 11.091797 L 13.037109 10.826172 L 12.605469 10.595703 L 12.15625 10.402344 L 11.830078 10.291016 z M 10.068359 14.001953 L 9.7890625 14.011719 L 9.515625 14.058594 L 9.25 14.146484 L 9 14.267578 L 8.7695312 14.423828 L 8.5605469 14.609375 L 8.3808594 14.824219 L 8.2324219 15.060547 L 8.1210938 15.316406 L 8.0429688 15.583984 L 8.0039062 15.861328 L 8.0039062 16.138672 L 8.0429688 16.416016 L 8.1210938 16.683594 L 8.2324219 16.9375 L 8.3808594 17.175781 L 8.5605469 17.388672 L 8.7695312 17.576172 L 9 17.732422 L 9.25 17.853516 L 9.515625 17.941406 L 9.7890625 17.988281 L 10.068359 18 L 10.347656 17.970703 L 10.617188 17.900391 L 10.876953 17.796875 L 11.119141 17.658203 L 11.337891 17.486328 L 11.53125 17.285156 L 11.695312 17.060547 L 11.826172 16.8125 L 11.921875 16.550781 L 11.980469 16.277344 L 12 16 L 11.980469 15.722656 L 11.921875 15.449219 L 11.826172 15.1875 L 11.695312 14.939453 L 11.53125 14.712891 L 11.337891 14.513672 L 11.119141 14.341797 L 10.876953 14.203125 L 10.617188 14.097656 L 10.347656 14.03125 L 10.068359 14.001953 z M 10 15 L 10.193359 15.019531 L 10.380859 15.076172 L 10.554688 15.167969 L 10.707031 15.292969 L 10.830078 15.443359 L 10.923828 15.617188 L 10.980469 15.804688 L 10.998047 16 L 10.980469 16.195312 L 10.923828 16.382812 L 10.830078 16.556641 L 10.707031 16.707031 L 10.554688 16.830078 L 10.380859 16.923828 L 10.193359 16.980469 L 10 17 L 9.8046875 16.980469 L 9.6171875 16.923828 L 9.4433594 16.830078 L 9.2929688 16.707031 L 9.1679688 16.556641 L 9.0761719 16.382812 L 9.0175781 16.195312 L 9 16 L 9.0175781 15.804688 L 9.0761719 15.617188 L 9.1679688 15.443359 L 9.2929688 15.292969 L 9.4433594 15.167969 L 9.6171875 15.076172 L 9.8046875 15.019531 L 10 15 z " style="fill:#222222; fill-opacity:1; stroke:none; stroke-width:0px;"/></g></svg>